PathFileType	4	(X/Y/Z) shrug_2kg_1.trc																										
DataRate	CameraRate	NumFrames	NumMarkers	Units	OrigDataRate	OrigDataStartFrame	OrigNumFrames																					
100	100	58	9	mm	100	1	433																					
Frame#	Time	gu			centelbow			EpL			centpxt8			centijc7			ij			ts			aa			ai		
		X1	Y1	Z1	X2	Y2	Z2	X3	Y3	Z3	X4	Y4	Z4	X5	Y5	Z5	X6	Y6	Z6	X7	Y7	Z7	X8	Y8	Z8	X9	Y9	Z9
0	0	-76.767	-19.32	165.491	-125.273	-260.764	183.831	-108.293	-258.02	211.1	-46.816	-153.158	-8.669	-46.816	31.938	-8.669	0	0	0	-135.106	27.397	54.673	-103.459	17.953	169.277	-158.343	-83.681	57.36
1	0.01	-76.403	-19.659	165.37	-124.914	-261.103	183.686	-107.917	-258.366	210.945	-46.816	-153.158	-8.669	-46.816	31.938	-8.669	0	0	0	-134.916	27.352	54.659	-103.231	17.872	169.25	-158.156	-83.726	57.321
2	0.02	-76.128	-20.206	165.118	-124.693	-261.64	183.425	-107.673	-258.914	210.67	-46.816	-153.158	-8.669	-46.816	31.938	-8.669	0	0	0	-134.666	27.304	54.604	-102.955	17.792	169.184	-157.899	-83.776	57.237
3	0.03	-76.249	-20.497	165.12	-124.818	-261.93	183.437	-107.786	-259.206	210.674	-46.816	-153.158	-8.669	-46.816	31.938	-8.669	0	0	0	-134.598	27.204	54.646	-102.883	17.666	169.223	-157.833	-83.877	57.256
4	0.04	-76.563	-20.264	165.502	-125.032	-261.717	183.828	-108.004	-258.983	211.067	-46.816	-153.158	-8.669	-46.816	31.938	-8.669	0	0	0	-134.728	27.066	54.84	-103.015	17.504	169.416	-157.99	-84.009	57.434
5	0.05	-76.741	-19.867	165.943	-125.084	-261.344	184.278	-108.066	-258.599	211.522	-46.816	-153.158	-8.669	-46.816	31.938	-8.669	0	0	0	-134.851	26.911	55.096	-103.142	17.32	169.671	-158.156	-84.156	57.675
6	0.06	-76.775	-19.827	166.154	-125.07	-261.312	184.511	-108.055	-258.559	211.757	-46.816	-153.158	-8.669	-46.816	31.938	-8.669	0	0	0	-134.904	26.787	55.276	-103.212	17.182	169.854	-158.238	-84.274	57.845
7	0.07	-76.828	-20.118	166.213	-125.123	-261.601	184.594	-108.109	-258.846	211.841	-46.816	-153.158	-8.669	-46.816	31.938	-8.669	0	0	0	-134.975	26.772	55.341	-103.307	17.175	169.926	-158.295	-84.292	57.909
8	0.08	-76.932	-20.349	166.293	-125.194	-261.837	184.693	-108.187	-259.076	211.943	-46.816	-153.158	-8.669	-46.816	31.938	-8.669	0	0	0	-135.018	26.804	55.361	-103.369	17.222	169.953	-158.304	-84.267	57.93
9	0.09	-77.049	-20.404	166.406	-125.247	-261.904	184.823	-108.251	-259.134	212.079	-46.816	-153.158	-8.669	-46.816	31.938	-8.669	0	0	0	-134.959	26.762	55.383	-103.32	17.183	169.978	-158.23	-84.312	57.947
10	0.1	-77.166	-20.449	166.52	-125.32	-261.957	184.946	-108.337	-259.18	212.209	-46.816	-153.158	-8.669	-46.816	31.938	-8.669	0	0	0	-134.905	26.65	55.398	-103.272	17.061	169.993	-158.183	-84.424	57.954
11	0.11	-77.268	-20.441	166.709	-125.371	-261.959	185.134	-108.402	-259.175	212.405	-46.816	-153.158	-8.669	-46.816	31.938	-8.669	0	0	0	-134.989	26.568	55.422	-103.367	16.981	170.021	-158.268	-84.505	57.978
12	0.12	-77.296	-20.193	167.003	-125.282	-261.733	185.441	-108.333	-258.935	212.723	-46.816	-153.158	-8.669	-46.816	31.938	-8.669	0	0	0	-135.148	26.664	55.467	-103.538	17.109	170.072	-158.386	-84.417	58.038
13	0.13	-77.167	-19.823	167.248	-124.996	-261.391	185.726	-108.06	-258.575	213.015	-46.816	-153.158	-8.669	-46.816	31.938	-8.669	0	0	0	-135.187	27.003	55.473	-103.576	17.497	170.082	-158.339	-84.095	58.068
14	0.14	-76.893	-19.682	167.362	-124.607	-261.269	185.886	-107.674	-258.439	213.175	-46.816	-153.158	-8.669	-46.816	31.938	-8.669	0	0	0	-135.045	27.356	55.405	-103.424	17.889	170.015	-158.107	-83.761	58.013
15	0.15	-76.627	-19.878	167.461	-124.292	-261.474	186.005	-107.361	-258.638	213.295	-46.816	-153.158	-8.669	-46.816	31.938	-8.669	0	0	0	-134.841	27.382	55.313	-103.22	17.925	169.923	-157.86	-83.744	57.918
16	0.16	-76.513	-20.161	167.554	-124.147	-261.764	186.086	-107.221	-258.926	213.379	-46.816	-153.158	-8.669	-46.816	31.938	-8.669	0	0	0	-134.707	27.167	55.243	-103.103	17.706	169.858	-157.724	-83.959	57.841
17	0.17	-76.636	-20.254	167.501	-124.211	-261.871	185.997	-107.287	-259.033	213.291	-46.816	-153.158	-8.669	-46.816	31.938	-8.669	0	0	0	-134.734	27.11	55.228	-103.165	17.654	169.852	-157.734	-84.02	57.817
18	0.18	-76.963	-20.16	167.3	-124.457	-261.796	185.757	-107.527	-258.958	213.048	-46.816	-153.158	-8.669	-46.816	31.938	-8.669	0	0	0	-134.899	27.273	55.254	-103.378	17.826	169.893	-157.852	-83.867	57.829
19	0.19	-77.259	-20.058	167.114	-124.678	-261.71	185.556	-107.74	-258.871	212.842	-46.816	-153.158	-8.669	-46.816	31.938	-8.669	0	0	0	-135.007	27.429	55.214	-103.53	17.989	169.865	-157.922	-83.719	57.775
20	0.2	-77.315	-20.053	167.083	-124.687	-261.713	185.54	-107.746	-258.869	212.824	-46.816	-153.158	-8.669	-46.816	31.938	-8.669	0	0	0	-134.953	27.521	55.026	-103.499	18.084	169.684	-157.855	-83.631	57.582
21	0.21	-77.203	-20.079	167.208	-124.549	-261.743	185.677	-107.616	-258.894	212.964	-46.816	-153.158	-8.669	-46.816	31.938	-8.669	0	0	0	-134.856	27.617	54.77	-103.421	18.184	169.433	-157.759	-83.534	57.327
22	0.22	-77.135	-20	167.38	-124.443	-261.673	185.827	-107.525	-258.821	213.122	-46.816	-153.158	-8.669	-46.816	31.938	-8.669	0	0	0	-134.803	27.712	54.621	-103.398	18.284	169.293	-157.708	-83.439	57.176
23	0.23	-77.144	-19.823	167.519	-124.419	-261.506	185.929	-107.514	-258.653	213.233	-46.816	-153.158	-8.669	-46.816	31.938	-8.669	0	0	0	-134.711	27.773	54.674	-103.345	18.354	169.358	-157.621	-83.376	57.231
24	0.24	-77.123	-19.732	167.62	-124.421	-261.412	186.008	-107.524	-258.561	213.317	-46.816	-153.158	-8.669	-46.816	31.938	-8.669	0	0	0	-134.555	27.801	54.841	-103.226	18.398	169.536	-157.469	-83.347	57.408
25	0.25	-77.076	-19.806	167.653	-124.415	-261.477	186.04	-107.522	-258.628	213.352	-46.816	-153.158	-8.669	-46.816	31.938	-8.669	0	0	0	-134.469	27.814	54.926	-103.173	18.428	169.631	-157.372	-83.337	57.5
26	0.26	-77.076	-19.905	167.581	-124.394	-261.58	185.983	-107.501	-258.727	213.295	-46.816	-153.158	-8.669	-46.816	31.938	-8.669	0	0	0	-134.528	27.825	54.822	-103.254	18.45	169.534	-157.397	-83.332	57.391
27	0.27	-77.111	-19.952	167.474	-124.369	-261.637	185.893	-107.475	-258.779	213.204	-46.816	-153.158	-8.669	-46.816	31.938	-8.669	0	0	0	-134.624	27.781	54.653	-103.358	18.405	169.367	-157.467	-83.382	57.212
28	0.28	-77.123	-20.025	167.43	-124.372	-261.712	185.845	-107.478	-258.854	213.155	-46.816	-153.158	-8.669	-46.816	31.938	-8.669	0	0	0	-134.645	27.637	54.607	-103.379	18.249	169.321	-157.498	-83.524	57.158
29	0.29	-77.128	-20.118	167.463	-124.424	-261.798	185.853	-107.529	-258.946	213.164	-46.816	-153.158	-8.669	-46.816	31.938	-8.669	0	0	0	-134.594	27.53	54.693	-103.332	18.129	169.406	-157.47	-83.626	57.236
30	0.3	-77.185	-20.11	167.557	-124.513	-261.786	185.916	-107.621	-258.938	213.228	-46.816	-153.158	-8.669	-46.816	31.938	-8.669	0	0	0	-134.564	27.625	54.772	-103.305	18.224	169.486	-157.431	-83.534	57.312
31	0.31	-77.293	-19.987	167.657	-124.614	-261.666	185.99	-107.725	-258.821	213.305	-46.816	-153.158	-8.669	-46.816	31.938	-8.669	0	0	0	-134.633	27.864	54.709	-103.366	18.469	169.422	-157.457	-83.304	57.245
32	0.32	-77.403	-19.877	167.624	-124.693	-261.564	185.945	-107.802	-258.718	213.259	-46.816	-153.158	-8.669	-46.816	31.938	-8.669	0	0	0	-134.775	28.058	54.482	-103.475	18.657	169.185	-157.557	-83.119	57.007
33	0.33	-77.46	-19.844	167.361	-124.708	-261.538	185.695	-107.806	-258.691	213.001	-46.816	-153.158	-8.669	-46.816	31.938	-8.669	0	0	0	-134.885	28.109	54.249	-103.542	18.686	168.939	-157.655	-83.07	56.757
34	0.34	-77.463	-19.82	167.014	-124.678	-261.518	185.373	-107.759	-258.67	212.669	-46.816	-153.158	-8.669	-46.816	31.938	-8.669	0	0	0	-134.911	28.08	54.196	-103.551	18.631	168.879	-157.693	-83.097	56.687
35	0.35	-77.504	-19.757	166.816	-124.709	-261.456	185.187	-107.78	-258.608	212.476	-46.816	-153.158	-8.669	-46.816	31.938	-8.669	0	0	0	-134.918	28.105	54.301	-103.578	18.644	168.989	-157.712	-83.07	56.779
36	0.36	-77.672	-19.734	166.77	-124.886	-261.433	185.125	-107.954	-258.588	212.413	-46.816	-153.158	-8.669	-46.816	31.938	-8.669	0	0	0	-134.991	28.206	54.378	-103.682	18.744	169.074	-157.792	-82.968	56.851
37	0.37	-77.902	-19.847	166.751	-125.141	-261.544	185.061	-108.21	-258.706	212.351	-46.816	-153.158	-8.669	-46.816	31.938	-8.669	0	0	0	-135.098	28.243	54.344	-103.805	18.775	169.043	-157.918	-82.927	56.812
38	0.38	-78.02	-20.021	166.779	-125.289	-261.718	185.017	-108.363	-258.889	212.31	-46.816	-153.158	-8.669	-46.816	31.938	-8.669	0	0	0	-135.13	28.146	54.301	-103.845	18.654	169	-157.983	-83.018	56.754
39	0.39	-77.967	-20.071	166.914	-125.236	-261.773	185.071	-108.318	-258.951	212.37	-46.816	-153.158	-8.669	-46.816	31.938	-8.669	0	0	0	-135.049	28.006	54.354	-103.774	18.479	169.053	-157.934	-83.152	56.781
40	0.4	-77.856	-19.947	167.063	-125.088	-261.661	185.163	-108.178	-258.841	212.467	-46.816	-153.158	-8.669	-46.816	31.938	-8.669	0	0	0	-134.927	27.911	54.478	-103.658	18.349	169.177	-157.833	-83.243	56.876
41	0.41	-77.799	-19.757	167.123	-124.994	-261.48	185.201	-108.086	-258.66	212.506	-46.816	-153.158	-8.669	-46.816	31.938	-8.669	0	0	0	-134.858	27.871	54.586	-103.59	18.288	169.283	-157.777	-83.281	56.967
42	0.42	-77.771	-19.569	167.146	-124.953	-261.295	185.23	-108.047	-258.472	212.537	-46.816	-153.158	-8.669	-46.816	31.938	-8.669	0	0	0	-134.877	27.886	54.617	-103.6	18.296	169.311	-157.803	-83.264	56.996
43	0.43	-77.661	-19.435	167.205	-124.867	-261.153	185.328	-107.966	-258.326	212.637	-46.816	-153.158	-8.669	-46.816	31.938	-8.669	0	0	0	-134.879	27.95	54.557	-103.58	18.352	169.244	-157.825	-83.196	56.937
44	0.44	-77.437	-19.467	167.315	-124.727	-261.164	185.492	-107.83	-258.336	212.804	-46.816	-153.158	-8.669	-46.816	31.938	-8.669	0	0	0	-134.737	28.017	54.505	-103.425	18.395	169.186	-157.723	-83.121	56.877
45	0.45	-77.236	-19.653	167.521	-124.65	-261.325	185.71	-107.757	-258.503	213.025	-46.816	-153.158	-8.669	-46.816	31.938	-8.669	0	0	0	-134.525	28.039	54.634	-103.237	18.377	169.319	-157.552	-83.091	56.975
46	0.46	-77.214	-19.806	167.81	-124.728	-261.463	185.933	-107.841	-258.654	213.252	-46.816	-153.158	-8.669	-46.816	31.938	-8.669	0	0	0	-134.448	28.005	54.908	-103.208	18.3	169.602	-157.504	-83.12	57.206
47	0.47	-77.35	-19.858	168.007	-124.925	-261.51	186.039	-108.042	-258.714	213.363	-46.816	-153.158	-8.669	-46.816	31.938	-8.669	0	0	0	-134.574	27.915	55.106	-103.367	18.176	169.806	-157.658	-83.205	57.371
48	0.48	-77.491	-19.85	167.993	-125.124	-261.494	185.983	-108.24	-258.707	213.307	-46.816	-153.158	-8.669	-46.816	31.938	-8.669	0	0	0	-134.755	27.852	55.135	-103.55	18.092	169.833	-157.872	-83.262	57.389
49	0.49	-77.549	-19.76	167.873	-125.237	-261.393	185.864	-108.349	-258.611	213.185	-46.816	-153.158	-8.669	-46.816	31.938	-8.669	0	0	0	-134.814	27.94	55.072	-103.605	18.164	169.768	-157.953	-83.168	57.318
50	0.5	-77.557	-19.682	167.838	-125.286	-261.308	185.812	-108.399	-258.53	213.134	-46.816	-153.158	-8.669	-46.816	31.938	-8.669	0	0	0	-134.756	28.073	55.014	-103.569	18.27	169.714	-157.908	-83.033	57.232
51	0.51	-77.6	-19.803	167.936	-125.393	-261.422	185.847	-108.514	-258.653	213.176	-46.816	-153.158	-8.669	-46.816	31.938	-8.669	0	0	0	-134.73	28.005	55.03	-103.598	18.154	169.741	-157.913	-83.097	57.201
52	0.52	-77.751	-20.017	167.994	-125.622	-261.624	185.842	-108.748	-258.867	213.175	-46.816	-153.158	-8.669	-46.816	31.938	-8.669	0	0	0	-134.838	27.778	55.085	-103.762	17.876	169.806	-158.078	-83.312	57.21
53	0.53	-77.962	-20.005	167.879	-125.841	-261.612	185.712	-108.963	-258.857	213.043	-46.816	-153.158	-8.669	-46.816	31.938	-8.669	0	0	0	-135.025	27.638	55.052	-103.972	17.701	169.777	-158.319	-83.441	57.154
54	0.54	-78.086	-19.76	167.736	-125.864	-261.385	185.589	-108.987	-258.622	212.919	-46.816	-153.158	-8.669	-46.816	31.938	-8.669	0	0	0	-135.146	27.616	54.932	-104.094	17.654	169.655	-158.471	-83.458	57.02
55	0.55	-78.091	-19.522	167.683	-125.721	-261.175	185.56	-108.854	-258.396	212.895	-46.816	-153.158	-8.669	-46.816	31.938	-8.669	0	0	0	-135.13	27.594	54.834	-104.089	17.611	169.559	-158.47	-83.476	56.902
56	0.56	-78.102	-19.379	167.636	-125.612	-261.054	185.535	-108.752	-258.264	212.873	-46.816	-153.158	-8.669	-46.816	31.938	-8.669	0	0	0	-135.051	27.591	54.791	-104.03	17.591	169.52	-158.392	-83.48	56.84
57	0.57	-78.18	-19.352	167.593	-125.631	-261.038	185.498	-108.77	-258.242	212.836	-46.816	-153.158	-8.669	-46.816	31.938	-8.669	0	0	0	-135.028	27.647	54.783	-104.019	17.637	169.513	-158.35	-83.428	56.813
